<mxfile host="app.diagrams.net" modified="2021-07-19T20:13:48.934Z" agent="5.0 (X11; Linux x86_64) AppleWebKit/537.36 (KHTML, like Gecko) Chrome/89.0.4389.90 Safari/537.36" etag="hwX9ReuR74q0qFZNkNAt" version="14.9.0" type="github">
  <diagram id="7stmQRO2gU4PTb0LuIHA" name="Our_Vision">
    <mxGraphModel dx="1119" dy="644" grid="1" gridSize="10" guides="1" tooltips="1" connect="1" arrows="1" fold="1" page="1" pageScale="1" pageWidth="827" pageHeight="1169" math="0" shadow="0">
      <root>
        <mxCell id="0" />
        <mxCell id="1" parent="0" />
        <mxCell id="s-xp1pqlzb6VG6QAFs1--28" value="" style="rounded=0;whiteSpace=wrap;html=1;strokeColor=#666666;strokeWidth=3;" vertex="1" parent="1">
          <mxGeometry x="10.000000000000002" y="330" width="690" height="222.5" as="geometry" />
        </mxCell>
        <mxCell id="s-xp1pqlzb6VG6QAFs1--1" style="edgeStyle=orthogonalEdgeStyle;rounded=0;orthogonalLoop=1;jettySize=auto;html=1;entryX=0.5;entryY=0;entryDx=0;entryDy=0;strokeWidth=3;strokeColor=#CCCCCC;" edge="1" parent="1" source="s-xp1pqlzb6VG6QAFs1--3" target="s-xp1pqlzb6VG6QAFs1--5">
          <mxGeometry relative="1" as="geometry" />
        </mxCell>
        <mxCell id="s-xp1pqlzb6VG6QAFs1--2" style="edgeStyle=orthogonalEdgeStyle;rounded=0;orthogonalLoop=1;jettySize=auto;html=1;entryX=0.5;entryY=0;entryDx=0;entryDy=0;strokeWidth=3;strokeColor=#CCCCCC;" edge="1" parent="1" source="s-xp1pqlzb6VG6QAFs1--3" target="s-xp1pqlzb6VG6QAFs1--10">
          <mxGeometry relative="1" as="geometry" />
        </mxCell>
        <mxCell id="s-xp1pqlzb6VG6QAFs1--3" value="&lt;font color=&quot;#666666&quot;&gt;&lt;b&gt;A&lt;/b&gt;&lt;/font&gt;" style="ellipse;whiteSpace=wrap;html=1;aspect=fixed;strokeWidth=3;strokeColor=#CCCCCC;" vertex="1" parent="1">
          <mxGeometry x="585" y="20" width="30" height="30" as="geometry" />
        </mxCell>
        <mxCell id="s-xp1pqlzb6VG6QAFs1--4" value="" style="group" vertex="1" connectable="0" parent="1">
          <mxGeometry x="480" y="75" width="114.37" height="85" as="geometry" />
        </mxCell>
        <mxCell id="s-xp1pqlzb6VG6QAFs1--5" value="&lt;font color=&quot;#666666&quot;&gt;&lt;b&gt;B&lt;/b&gt;&lt;/font&gt;" style="ellipse;whiteSpace=wrap;html=1;aspect=fixed;strokeWidth=3;strokeColor=#666666;" vertex="1" parent="s-xp1pqlzb6VG6QAFs1--4">
          <mxGeometry x="39.370000000000005" width="30" height="30" as="geometry" />
        </mxCell>
        <mxCell id="s-xp1pqlzb6VG6QAFs1--6" value="&lt;font color=&quot;#666666&quot;&gt;&lt;b&gt;E&lt;/b&gt;&lt;/font&gt;" style="ellipse;whiteSpace=wrap;html=1;aspect=fixed;strokeWidth=3;strokeColor=#CCCCCC;" vertex="1" parent="s-xp1pqlzb6VG6QAFs1--4">
          <mxGeometry x="84.37" y="55" width="30" height="30" as="geometry" />
        </mxCell>
        <mxCell id="s-xp1pqlzb6VG6QAFs1--7" style="edgeStyle=orthogonalEdgeStyle;rounded=0;orthogonalLoop=1;jettySize=auto;html=1;entryX=0.5;entryY=0;entryDx=0;entryDy=0;strokeWidth=3;strokeColor=#CCCCCC;" edge="1" parent="s-xp1pqlzb6VG6QAFs1--4" source="s-xp1pqlzb6VG6QAFs1--5" target="s-xp1pqlzb6VG6QAFs1--6">
          <mxGeometry relative="1" as="geometry" />
        </mxCell>
        <mxCell id="s-xp1pqlzb6VG6QAFs1--8" value="&lt;font color=&quot;#666666&quot; size=&quot;1&quot;&gt;&lt;b style=&quot;font-size: 12px&quot;&gt;D&lt;/b&gt;&lt;/font&gt;" style="ellipse;whiteSpace=wrap;html=1;aspect=fixed;strokeWidth=3;strokeColor=#CCCCCC;" vertex="1" parent="s-xp1pqlzb6VG6QAFs1--4">
          <mxGeometry y="55" width="30" height="30" as="geometry" />
        </mxCell>
        <mxCell id="s-xp1pqlzb6VG6QAFs1--9" style="edgeStyle=orthogonalEdgeStyle;rounded=0;orthogonalLoop=1;jettySize=auto;html=1;entryX=0.5;entryY=0;entryDx=0;entryDy=0;strokeWidth=3;strokeColor=#CCCCCC;" edge="1" parent="s-xp1pqlzb6VG6QAFs1--4" source="s-xp1pqlzb6VG6QAFs1--5" target="s-xp1pqlzb6VG6QAFs1--8">
          <mxGeometry relative="1" as="geometry" />
        </mxCell>
        <mxCell id="s-xp1pqlzb6VG6QAFs1--10" value="&lt;font color=&quot;#666666&quot;&gt;&lt;b&gt;C&lt;/b&gt;&lt;/font&gt;" style="ellipse;whiteSpace=wrap;html=1;aspect=fixed;strokeWidth=3;strokeColor=#CCCCCC;" vertex="1" parent="1">
          <mxGeometry x="649.37" y="75" width="30" height="30" as="geometry" />
        </mxCell>
        <mxCell id="s-xp1pqlzb6VG6QAFs1--11" value="&lt;font color=&quot;#666666&quot;&gt;&lt;b&gt;G&lt;/b&gt;&lt;/font&gt;" style="ellipse;whiteSpace=wrap;html=1;aspect=fixed;strokeWidth=3;strokeColor=#CCCCCC;" vertex="1" parent="1">
          <mxGeometry x="694.37" y="130" width="30" height="30" as="geometry" />
        </mxCell>
        <mxCell id="s-xp1pqlzb6VG6QAFs1--12" style="edgeStyle=orthogonalEdgeStyle;rounded=0;orthogonalLoop=1;jettySize=auto;html=1;entryX=0.5;entryY=0;entryDx=0;entryDy=0;strokeWidth=3;strokeColor=#CCCCCC;" edge="1" parent="1" source="s-xp1pqlzb6VG6QAFs1--10" target="s-xp1pqlzb6VG6QAFs1--11">
          <mxGeometry relative="1" as="geometry" />
        </mxCell>
        <mxCell id="s-xp1pqlzb6VG6QAFs1--13" value="&lt;font color=&quot;#666666&quot;&gt;&lt;b&gt;F&lt;/b&gt;&lt;/font&gt;" style="ellipse;whiteSpace=wrap;html=1;aspect=fixed;strokeWidth=3;strokeColor=#CCCCCC;" vertex="1" parent="1">
          <mxGeometry x="610" y="130" width="30" height="30" as="geometry" />
        </mxCell>
        <mxCell id="s-xp1pqlzb6VG6QAFs1--14" style="edgeStyle=orthogonalEdgeStyle;rounded=0;orthogonalLoop=1;jettySize=auto;html=1;entryX=0.5;entryY=0;entryDx=0;entryDy=0;strokeWidth=3;strokeColor=#CCCCCC;" edge="1" parent="1" source="s-xp1pqlzb6VG6QAFs1--10" target="s-xp1pqlzb6VG6QAFs1--13">
          <mxGeometry relative="1" as="geometry" />
        </mxCell>
        <mxCell id="s-xp1pqlzb6VG6QAFs1--15" value="&lt;font color=&quot;#666666&quot;&gt;&lt;b&gt;A&lt;/b&gt;&lt;/font&gt;" style="ellipse;whiteSpace=wrap;html=1;aspect=fixed;strokeWidth=3;strokeColor=#666666;" vertex="1" parent="1">
          <mxGeometry x="260" y="450" width="30" height="30" as="geometry" />
        </mxCell>
        <mxCell id="s-xp1pqlzb6VG6QAFs1--16" value="&lt;font color=&quot;#666666&quot;&gt;&lt;b&gt;B&lt;/b&gt;&lt;/font&gt;" style="ellipse;whiteSpace=wrap;html=1;aspect=fixed;strokeWidth=3;strokeColor=#666666;" vertex="1" parent="1">
          <mxGeometry x="353.37" y="450" width="30" height="30" as="geometry" />
        </mxCell>
        <mxCell id="s-xp1pqlzb6VG6QAFs1--17" value="&lt;h1&gt;&lt;span style=&quot;font-weight: normal&quot;&gt;&lt;u&gt;&lt;font color=&quot;#666666&quot;&gt;Our Vision goes beyond all competitors&lt;/font&gt;&lt;/u&gt;&lt;/span&gt;&lt;/h1&gt;" style="text;html=1;strokeColor=none;fillColor=none;spacing=5;spacingTop=-20;whiteSpace=wrap;overflow=hidden;rounded=0;" vertex="1" parent="1">
          <mxGeometry x="120" y="250" width="430" height="40" as="geometry" />
        </mxCell>
        <mxCell id="s-xp1pqlzb6VG6QAFs1--18" value="I created some unique&amp;nbsp;&lt;br&gt;&lt;b&gt;&lt;font style=&quot;font-size: 14px&quot;&gt;&lt;font color=&quot;#658566&quot;&gt;DRUMS&lt;/font&gt; &lt;font color=&quot;#d69090&quot;&gt;LOOPS&lt;/font&gt;&lt;/font&gt;&lt;/b&gt;" style="shape=callout;whiteSpace=wrap;html=1;perimeter=calloutPerimeter;strokeColor=#CCCCCC;strokeWidth=3;" vertex="1" parent="1">
          <mxGeometry x="420" y="350" width="130" height="75" as="geometry" />
        </mxCell>
        <mxCell id="s-xp1pqlzb6VG6QAFs1--21" value="" style="edgeStyle=orthogonalEdgeStyle;rounded=0;orthogonalLoop=1;jettySize=auto;html=1;strokeWidth=3;strokeColor=#666666;" edge="1" parent="1" source="s-xp1pqlzb6VG6QAFs1--20" target="s-xp1pqlzb6VG6QAFs1--16">
          <mxGeometry relative="1" as="geometry" />
        </mxCell>
        <mxCell id="s-xp1pqlzb6VG6QAFs1--20" value="Producer" style="shape=umlActor;verticalLabelPosition=bottom;verticalAlign=top;html=1;outlineConnect=0;strokeColor=#666666;strokeWidth=3;" vertex="1" parent="1">
          <mxGeometry x="460" y="435" width="30" height="60" as="geometry" />
        </mxCell>
        <mxCell id="s-xp1pqlzb6VG6QAFs1--24" value="" style="edgeStyle=orthogonalEdgeStyle;rounded=0;orthogonalLoop=1;jettySize=auto;html=1;strokeWidth=3;strokeColor=#666666;" edge="1" parent="1" source="s-xp1pqlzb6VG6QAFs1--23" target="s-xp1pqlzb6VG6QAFs1--15">
          <mxGeometry relative="1" as="geometry" />
        </mxCell>
        <mxCell id="s-xp1pqlzb6VG6QAFs1--23" value="Producer" style="shape=umlActor;verticalLabelPosition=bottom;verticalAlign=top;html=1;outlineConnect=0;strokeColor=#666666;strokeWidth=3;" vertex="1" parent="1">
          <mxGeometry x="140" y="435" width="30" height="60" as="geometry" />
        </mxCell>
        <mxCell id="s-xp1pqlzb6VG6QAFs1--27" value="I created some unique&amp;nbsp;&lt;br&gt;&lt;b&gt;&lt;font style=&quot;font-size: 14px&quot;&gt;&lt;font color=&quot;#658566&quot;&gt;Sythesizer&lt;/font&gt;&amp;nbsp;&lt;font color=&quot;#d69090&quot;&gt;Sounds&lt;/font&gt;&lt;/font&gt;&lt;/b&gt;" style="shape=callout;whiteSpace=wrap;html=1;perimeter=calloutPerimeter;strokeColor=#CCCCCC;strokeWidth=3;" vertex="1" parent="1">
          <mxGeometry x="205" y="360" width="140" height="75" as="geometry" />
        </mxCell>
      </root>
    </mxGraphModel>
  </diagram>
</mxfile>
